<svg xmlns="http://www.w3.org/2000/svg" viewBox="0 0 266.49 44.99"><defs><style>.cls-1{fill:#ff6e61;}</style></defs><title>Asset 1</title><g id="Layer_2" data-name="Layer 2"><g id="Layer_1-2" data-name="Layer 1"><path class="cls-1" d="M0,44.16,9.47,1.28H31.94L41.6,44.16h-15l-1.21-4.93H15.62l-1,4.93ZM20,12.93l-2.43,15h6.33l-2.3-15Z"/><path class="cls-1" d="M76,0V44.16H61.89l-.13-1.41A12.55,12.55,0,0,1,55,45q-7,0-9.86-4.32T42.37,28q0-17,14.14-17l5.19.38V0ZM59.65,22.59A2.18,2.18,0,0,0,57.38,24a11.34,11.34,0,0,0-.55,4,10.8,10.8,0,0,0,.58,4,2.24,2.24,0,0,0,2.3,1.41l2-.19V22.78A19,19,0,0,0,59.65,22.59Z"/><path class="cls-1" d="M94.53,44.16H80.19V11.84H94.53v3q4-3.84,6.78-3.84V24.32a13.48,13.48,0,0,0-5.63,1.73l-1.15.57Z"/><path class="cls-1" d="M104.26,9.79V0h14.46V9.79Zm.06,34.37V11.84h14.34V44.16Z"/><path class="cls-1" d="M136.32,32.19c0,1.5,1,2.24,2.88,2.24q6.41,0,12.8-.38l2.5-.19.32,9.28A79.79,79.79,0,0,1,137.89,45q-8.41,0-12.16-3.87T122,28.58q0-8.68,4-13.12c2.68-3,6.88-4.45,12.57-4.45s9.93,1.21,12.71,3.65,4.15,6.16,4.15,11.2l-.63,6.33Zm4.8-7.81a4.74,4.74,0,0,0-.54-2.62,2.18,2.18,0,0,0-1.89-.77,2.07,2.07,0,0,0-1.86.77,5.29,5.29,0,0,0-.57,2.62Z"/><path class="cls-1" d="M173.05,44.16H158.72V11.84H173V13.5c2.69-1.66,5-2.49,7-2.49q6.91,0,9.66,3.74T192.45,28V44.16H178.11V28.93q0-5.57-2.3-5.57l-2.76.45Z"/><path class="cls-1" d="M210.62,44.16H196.29V11.84h14.27V13.5c2.69-1.66,5-2.49,7-2.49q6.92,0,9.66,3.74T230,28V44.16H215.68V28.93q0-5.57-2.31-5.57l-2.75.45Z"/><path class="cls-1" d="M247.36,32.19c0,1.5,1,2.24,2.88,2.24q6.39,0,12.8-.38l2.49-.19.32,9.28A79.7,79.7,0,0,1,248.93,45q-8.43,0-12.16-3.87T233,28.58q0-8.68,4-13.12T249.63,11q8.53,0,12.7,3.65t4.16,11.2l-.64,6.33Zm4.8-7.81a4.64,4.64,0,0,0-.55-2.62,2.15,2.15,0,0,0-1.88-.77,2.07,2.07,0,0,0-1.86.77,5.38,5.38,0,0,0-.58,2.62Z"/></g></g></svg>