<svg xmlns="http://www.w3.org/2000/svg" viewBox="0 0 263.23 58.24"><defs><style>.cls-1{fill:#ff6e61;}</style></defs><title>Last</title><g id="Layer_2" data-name="Layer 2"><g id="Layer_1-2" data-name="Layer 1"><path class="cls-1" d="M18.75,44.16H0V1.28H18.11q11.07,0,15.94,5t4.86,16q0,11-4.67,16.45T18.75,44.16ZM23.94,23q0-5.76-1.19-7.68t-5.28-1.92H14.85V32.06h2.62A6.56,6.56,0,0,0,22.4,30.4C23.42,29.29,23.94,26.82,23.94,23Z"/><path class="cls-1" d="M55.81,32.19c0,1.5,1,2.24,2.88,2.24q6.39,0,12.8-.38L74,33.86l.32,9.28A79.63,79.63,0,0,1,57.38,45q-8.43,0-12.16-3.87T41.47,28.58q0-8.68,4-13.12T58.08,11q8.55,0,12.7,3.65t4.16,11.2l-.64,6.33Zm4.8-7.81a4.64,4.64,0,0,0-.55-2.62A2.15,2.15,0,0,0,58.18,21a2.07,2.07,0,0,0-1.86.77,5.38,5.38,0,0,0-.58,2.62Z"/><path class="cls-1" d="M99.13,11q12.68,0,12.68,16.45,0,9.85-3.78,13.69T94.27,45A125.8,125.8,0,0,1,81,43.9l-2.88-.38V0H92.48V12A30.16,30.16,0,0,1,99.13,11Zm-4.6,22.4q2.81,0,2.81-5.63a8.92,8.92,0,0,0-.64-4.1,2.32,2.32,0,0,0-2.17-1.09l-2,.45V33.22A9.79,9.79,0,0,0,94.53,33.41Z"/><path class="cls-1" d="M115.13,9.79V0H129.6V9.79Zm.07,34.37V11.84h14.33V44.16Z"/><path class="cls-1" d="M137.79,56.7q-5.11-1.66-5.12-7.36a9,9,0,0,1,.9-4.09,10.9,10.9,0,0,1,3.2-3.59,5.44,5.44,0,0,1-2.31-4.8,3.52,3.52,0,0,1,.93-1.88,12.25,12.25,0,0,1,1.89-2l.89-.83Q133,29.76,133,23t3.68-9.38Q140.35,11,148.86,11a40,40,0,0,1,5.57.51l1,.19,11.84-.19V19.9h-3a8.28,8.28,0,0,1,.57,2.63q0,6.91-3.52,9.25t-12,2.33a14.6,14.6,0,0,1-2.43-.19,1.38,1.38,0,0,0-.25.77c0,.43,2.51.64,7.55.64s8.44.75,10.21,2.24,2.65,4.21,2.65,8.16a10.89,10.89,0,0,1-4.35,9.21q-4.35,3.3-12.42,3.3T137.79,56.7Zm6.59-9.15c0,.56,1.62.83,4.87.83s4.86-.34,4.86-1c0-.43-.28-.69-.83-.8a22,22,0,0,0-3.39-.16L145,46.14C144.57,46.36,144.38,46.83,144.38,47.55ZM147,24.26a2.87,2.87,0,0,0,1.92.51,2.9,2.9,0,0,0,1.92-.51,2.34,2.34,0,0,0,.57-1.8,2.33,2.33,0,0,0-.57-1.79,2.9,2.9,0,0,0-1.92-.51,2.87,2.87,0,0,0-1.92.51,2.29,2.29,0,0,0-.58,1.79A2.3,2.3,0,0,0,147,24.26Z"/><path class="cls-1" d="M201.6,22.27V34.43a4.16,4.16,0,0,0,1.54.71l-.2,9.08a53,53,0,0,1-6.85.77,10.21,10.21,0,0,1-3.39-.54,5.25,5.25,0,0,1-2-1.12l-.51-.58A19.21,19.21,0,0,1,180.51,45c-3.78,0-6.62-.86-8.54-2.59s-2.88-4.51-2.88-8.35,1.08-6.41,3.26-7.71,5.61-2,10.3-2.21l4.61-.19v-.58c0-.81-.89-1.22-2.69-1.22a108.1,108.1,0,0,0-11.64.64l-2.12.2-.32-9.73A60.43,60.43,0,0,1,185.92,11q7.29,0,11.33,2.17Q201.6,15.49,201.6,22.27ZM184.83,35.14a3.92,3.92,0,0,0,2.43-1V31.81l-2.17.13c-1.11.08-1.67.64-1.67,1.66S183.89,35.14,184.83,35.14Z"/><path class="cls-1" d="M220.8,44.16H206.46V11.84H220.8v3q4-3.84,6.78-3.84V24.32A13.48,13.48,0,0,0,222,26.05l-1.15.57Z"/><path class="cls-1" d="M244.09,32.19c0,1.5,1,2.24,2.88,2.24q6.41,0,12.8-.38l2.5-.19.32,9.28A79.79,79.79,0,0,1,245.66,45q-8.41,0-12.16-3.87t-3.74-12.54q0-8.68,4-13.12T246.37,11q8.53,0,12.7,3.65t4.16,11.2l-.64,6.33Zm4.8-7.81a4.74,4.74,0,0,0-.54-2.62,2.16,2.16,0,0,0-1.89-.77,2.09,2.09,0,0,0-1.86.77,5.29,5.29,0,0,0-.57,2.62Z"/></g></g></svg>