<svg id="Layer_1" data-name="Layer 1" xmlns="http://www.w3.org/2000/svg" viewBox="0 0 547.78 62.33"><defs><style>.cls-1{fill:#7d1e42;}</style></defs><title>lockup-horiz-primary-outlines </title><path class="cls-1" d="M.52,47.17,10,4.29H32.46l9.66,42.88h-15l-1.21-4.93h-9.8l-1,4.93Zm20-31.23-2.44,15h6.34l-2.3-15Z"/><path class="cls-1" d="M76.55,3V47.17H62.41l-.13-1.41A12.63,12.63,0,0,1,55.56,48q-7,0-9.86-4.32T42.89,31q0-17,14.14-17l5.19.38V3ZM60.17,25.6A2.18,2.18,0,0,0,57.9,27a11.34,11.34,0,0,0-.55,4,10.8,10.8,0,0,0,.58,4,2.24,2.24,0,0,0,2.3,1.41l2-.2V25.79A19,19,0,0,0,60.17,25.6Z"/><path class="cls-1" d="M95.05,47.17H80.71V14.85H95.05v3c2.68-2.56,5-3.84,6.78-3.84V27.33a13.48,13.48,0,0,0-5.63,1.73l-1.15.57Z"/><path class="cls-1" d="M104.77,12.8V3h14.47V12.8Zm.07,34.37V14.85h14.33V47.17Z"/><path class="cls-1" d="M136.84,35.2c0,1.5,1,2.24,2.88,2.24q6.41,0,12.8-.38l2.49-.19.33,9.27A79.16,79.16,0,0,1,138.41,48q-8.41,0-12.16-3.87T122.5,31.59q0-8.68,4-13.12T139.11,14q8.55,0,12.71,3.65T156,28.87l-.63,6.33Zm4.8-7.81a4.64,4.64,0,0,0-.55-2.62,2.15,2.15,0,0,0-1.88-.77,2.07,2.07,0,0,0-1.86.77,5.38,5.38,0,0,0-.58,2.62Z"/><path class="cls-1" d="M173.57,47.17H159.24V14.85h14.27v1.66c2.69-1.66,5-2.49,7-2.49q6.91,0,9.66,3.74T193,31V47.17H178.63V31.94c0-3.72-.77-5.57-2.3-5.57l-2.76.45Z"/><path class="cls-1" d="M211.14,47.17H196.8V14.85h14.28v1.66a13.92,13.92,0,0,1,7-2.49c4.6,0,7.83,1.24,9.66,3.74s2.75,6.9,2.75,13.22V47.17H216.2V31.94c0-3.72-.77-5.57-2.31-5.57l-2.75.45Z"/><path class="cls-1" d="M247.88,35.2c0,1.5,1,2.24,2.88,2.24q6.39,0,12.8-.38l2.49-.19.32,9.27A79.09,79.09,0,0,1,249.44,48q-8.41,0-12.16-3.87t-3.74-12.54q0-8.68,4-13.12T250.15,14q8.53,0,12.7,3.65T267,28.87l-.64,6.33Zm4.8-7.81a4.73,4.73,0,0,0-.55-2.62,2.16,2.16,0,0,0-1.89-.77,2.07,2.07,0,0,0-1.85.77,5.27,5.27,0,0,0-.58,2.62Z"/><path class="cls-1" d="M303.49,47.17H284.74V4.29h18.11q11.07,0,15.94,5t4.86,16q0,11-4.67,16.45T303.49,47.17ZM308.67,26c0-3.85-.39-6.4-1.18-7.68s-2.55-1.92-5.28-1.92h-2.62V35.07h2.62a6.56,6.56,0,0,0,4.93-1.66Q308.67,31.74,308.67,26Z"/><path class="cls-1" d="M340.55,35.2c0,1.5,1,2.24,2.88,2.24q6.39,0,12.8-.38l2.49-.19.32,9.27A79.09,79.09,0,0,1,342.11,48Q333.7,48,330,44.13t-3.74-12.54q0-8.68,4-13.12T342.82,14q8.54,0,12.7,3.65t4.16,11.2L359,35.2Zm4.8-7.81a4.73,4.73,0,0,0-.55-2.62,2.16,2.16,0,0,0-1.89-.77,2.07,2.07,0,0,0-1.85.77,5.27,5.27,0,0,0-.58,2.62Z"/><path class="cls-1" d="M383.87,14q12.67,0,12.68,16.45,0,9.86-3.78,13.69T379,48a125.8,125.8,0,0,1-13.25-1.09l-2.88-.38V3h14.34V15A30.16,30.16,0,0,1,383.87,14Zm-4.6,22.4q2.81,0,2.81-5.63a8.92,8.92,0,0,0-.64-4.1,2.31,2.31,0,0,0-2.17-1.09l-2,.45V36.22A9,9,0,0,0,379.27,36.42Z"/><path class="cls-1" d="M399.87,12.8V3h14.47V12.8Zm.07,34.37V14.85h14.33V47.17Z"/><path class="cls-1" d="M422.53,59.71q-5.13-1.66-5.12-7.36a9.11,9.11,0,0,1,.89-4.09,11.06,11.06,0,0,1,3.21-3.59,5.44,5.44,0,0,1-2.31-4.8,3.48,3.48,0,0,1,.93-1.88A12.25,12.25,0,0,1,422,36l.89-.83q-5.18-2.43-5.18-9.21t3.68-9.38Q425.09,14,433.6,14a40.07,40.07,0,0,1,5.57.51l1,.19L452,14.53v8.38h-3a8,8,0,0,1,.58,2.63q0,6.9-3.52,9.25t-12,2.33a14.6,14.6,0,0,1-2.43-.19,1.37,1.37,0,0,0-.26.77c0,.42,2.52.64,7.56.64s8.43.74,10.2,2.24,2.66,4.21,2.66,8.16A10.89,10.89,0,0,1,447.49,58q-4.35,3.3-12.42,3.3C429.7,61.25,425.51,60.74,422.53,59.71Zm6.59-9.15c0,.56,1.62.83,4.86.83s4.87-.34,4.87-1c0-.43-.28-.69-.83-.8a22,22,0,0,0-3.39-.16l-4.93-.26C429.31,49.37,429.12,49.84,429.12,50.56Zm2.62-23.3a3.82,3.82,0,0,0,3.85,0,2.31,2.31,0,0,0,.57-1.79,2.33,2.33,0,0,0-.57-1.79,3.89,3.89,0,0,0-3.85,0,2.33,2.33,0,0,0-.57,1.79A2.31,2.31,0,0,0,431.74,27.26Z"/><path class="cls-1" d="M486.34,25.28V37.44a4.18,4.18,0,0,0,1.53.7l-.19,9.09a53,53,0,0,1-6.85.77,10.17,10.17,0,0,1-3.39-.54,5.18,5.18,0,0,1-2.05-1.12l-.51-.58A19.37,19.37,0,0,1,465.25,48c-3.78,0-6.62-.86-8.55-2.59s-2.88-4.51-2.88-8.35,1.09-6.41,3.27-7.71,5.61-2,10.3-2.21L472,27v-.58c0-.81-.9-1.22-2.69-1.22a108.1,108.1,0,0,0-11.64.64l-2.12.2-.32-9.73A60.37,60.37,0,0,1,470.66,14q7.29,0,11.32,2.17Q486.35,18.5,486.34,25.28ZM469.57,38.14a3.86,3.86,0,0,0,2.43-1V34.82l-2.18.13c-1.1.08-1.66.64-1.66,1.66S468.63,38.14,469.57,38.14Z"/><path class="cls-1" d="M505.54,47.17H491.2V14.85h14.34v3c2.68-2.56,4.95-3.84,6.78-3.84V27.33a13.48,13.48,0,0,0-5.63,1.73l-1.15.57Z"/><path class="cls-1" d="M528.83,35.2c0,1.5,1,2.24,2.88,2.24q6.4,0,12.8-.38l2.5-.19.32,9.27A79.16,79.16,0,0,1,530.4,48q-8.42,0-12.16-3.87T514.5,31.59q0-8.68,4-13.12T531.1,14q8.55,0,12.71,3.65T548,28.87l-.64,6.33Zm4.8-7.81a4.74,4.74,0,0,0-.54-2.62A2.16,2.16,0,0,0,531.2,24a2.09,2.09,0,0,0-1.86.77,5.29,5.29,0,0,0-.57,2.62Z"/></svg>