<svg id="Layer_1" data-name="Layer 1" xmlns="http://www.w3.org/2000/svg" viewBox="0 0 600.44 100"><defs><style>.cls-1{fill:#007db6;}</style></defs><title>lockup-horiz outlines</title><path class="cls-1" d="M25.85,74.84,35.32,32H57.79l9.66,42.88h-15l-1.22-4.93H41.47l-1,4.93Zm20-31.24-2.43,15h6.33l-2.3-15Z"/><path class="cls-1" d="M101.88,30.68V74.84H87.74l-.13-1.41a12.58,12.58,0,0,1-6.72,2.24q-7,0-9.85-4.32T68.22,58.71q0-17,14.14-17l5.19.39V30.68ZM85.5,53.27a2.18,2.18,0,0,0-2.27,1.41,11.58,11.58,0,0,0-.55,4,11.06,11.06,0,0,0,.58,4,2.24,2.24,0,0,0,2.3,1.4l2-.19V53.46A16.55,16.55,0,0,0,85.5,53.27Z"/><path class="cls-1" d="M120.38,74.84H106V42.52h14.34v3q4-3.84,6.78-3.84V55a13.48,13.48,0,0,0-5.63,1.72l-1.15.58Z"/><path class="cls-1" d="M130.11,40.47V30.68h14.46v9.79Zm.06,34.37V42.52h14.34V74.84Z"/><path class="cls-1" d="M162.17,62.87c0,1.49,1,2.24,2.88,2.24q6.4,0,12.8-.39l2.5-.19.32,9.28a79.16,79.16,0,0,1-16.93,1.86q-8.42,0-12.16-3.87t-3.74-12.55q0-8.67,4-13.12t12.57-4.45q8.55,0,12.71,3.65t4.16,11.2l-.64,6.34Zm4.8-7.81a4.72,4.72,0,0,0-.54-2.62,2.14,2.14,0,0,0-1.89-.77,2.06,2.06,0,0,0-1.86.77,5.26,5.26,0,0,0-.57,2.62Z"/><path class="cls-1" d="M198.91,74.84H184.57V42.52h14.27v1.66c2.69-1.66,5-2.5,7-2.5q6.92,0,9.67,3.75t2.75,13.21v16.2H204V59.6q0-5.57-2.3-5.56l-2.75.44Z"/><path class="cls-1" d="M236.47,74.84H222.14V42.52h14.27v1.66c2.69-1.66,5-2.5,7-2.5q6.92,0,9.66,3.75t2.76,13.21v16.2H241.53V59.6q0-5.57-2.3-5.56l-2.76.44Z"/><path class="cls-1" d="M273.21,62.87c0,1.49,1,2.24,2.88,2.24q6.41,0,12.8-.39l2.5-.19.32,9.28a79.16,79.16,0,0,1-16.93,1.86q-8.41,0-12.16-3.87t-3.75-12.55q0-8.67,4-13.12c2.68-3,6.88-4.45,12.57-4.45s9.93,1.22,12.71,3.65,4.16,6.17,4.16,11.2l-.64,6.34Zm4.8-7.81a4.72,4.72,0,0,0-.54-2.62,2.16,2.16,0,0,0-1.89-.77,2.05,2.05,0,0,0-1.86.77,5.26,5.26,0,0,0-.57,2.62Z"/><path class="cls-1" d="M328.82,74.84H310.07V32h18.11q11.07,0,15.94,5t4.86,16q0,11-4.67,16.44T328.82,74.84ZM334,53.65q0-5.76-1.19-7.68t-5.28-1.92h-2.62V62.74h2.62a6.56,6.56,0,0,0,4.93-1.66Q334,59.42,334,53.65Z"/><path class="cls-1" d="M365.88,62.87c0,1.49,1,2.24,2.88,2.24q6.4,0,12.8-.39l2.5-.19.32,9.28a79.16,79.16,0,0,1-16.93,1.86q-8.42,0-12.16-3.87t-3.75-12.55q0-8.67,4-13.12c2.68-3,6.88-4.45,12.57-4.45s9.93,1.22,12.71,3.65S385,51.5,385,56.53l-.64,6.34Zm4.8-7.81a4.72,4.72,0,0,0-.54-2.62,2.16,2.16,0,0,0-1.89-.77,2.05,2.05,0,0,0-1.86.77,5.26,5.26,0,0,0-.57,2.62Z"/><path class="cls-1" d="M409.21,41.68q12.66,0,12.67,16.45,0,9.85-3.78,13.7t-13.76,3.84a128.5,128.5,0,0,1-13.24-1.09l-2.89-.38V30.68h14.34v12A30.36,30.36,0,0,1,409.21,41.68Zm-4.61,22.4c1.88,0,2.81-1.87,2.81-5.63a8.87,8.87,0,0,0-.64-4.09,2.3,2.3,0,0,0-2.17-1.09l-2.05.45V63.89A9.16,9.16,0,0,0,404.6,64.08Z"/><path class="cls-1" d="M425.21,40.47V30.68h14.46v9.79Zm.06,34.37V42.52h14.34V74.84Z"/><path class="cls-1" d="M447.86,87.38q-5.12-1.66-5.12-7.36a9,9,0,0,1,.9-4.1,11,11,0,0,1,3.2-3.58,5.46,5.46,0,0,1-2.31-4.8,3.51,3.51,0,0,1,.93-1.89,11.76,11.76,0,0,1,1.89-2l.9-.83q-5.19-2.43-5.19-9.22t3.68-9.37q3.67-2.6,12.19-2.6a38.71,38.71,0,0,1,5.57.52l1,.19,11.84-.19v8.38h-3a8.23,8.23,0,0,1,.57,2.62q0,6.91-3.52,9.25t-12,2.34A15.78,15.78,0,0,1,457,64.6a1.35,1.35,0,0,0-.25.76c0,.43,2.51.64,7.55.64s8.44.75,10.21,2.24,2.65,4.22,2.65,8.16a10.91,10.91,0,0,1-4.35,9.22q-4.35,3.3-12.41,3.3T447.86,87.38Zm6.59-9.15c0,.55,1.62.83,4.87.83s4.86-.34,4.86-1c0-.43-.28-.7-.83-.8a21.94,21.94,0,0,0-3.39-.16L455,76.82C454.65,77,454.45,77.5,454.45,78.23Zm2.63-23.3a2.87,2.87,0,0,0,1.92.51,2.9,2.9,0,0,0,1.92-.51,3.1,3.1,0,0,0,0-3.58,2.9,2.9,0,0,0-1.92-.51,2.87,2.87,0,0,0-1.92.51,3.05,3.05,0,0,0,0,3.58Z"/><path class="cls-1" d="M511.67,53V65.11a4.24,4.24,0,0,0,1.54.7L513,74.9a54.78,54.78,0,0,1-6.84.77,10,10,0,0,1-3.4-.55,5,5,0,0,1-2-1.12l-.52-.57a19.32,19.32,0,0,1-9.63,2.24c-3.77,0-6.62-.87-8.54-2.59s-2.88-4.52-2.88-8.36,1.09-6.41,3.26-7.71,5.61-2,10.31-2.21l4.6-.19V54c0-.81-.89-1.22-2.68-1.22a105.63,105.63,0,0,0-11.65.64l-2.11.19-.32-9.73A60.74,60.74,0,0,1,496,41.68q7.29,0,11.33,2.18Q511.67,46.17,511.67,53ZM494.9,65.81a3.92,3.92,0,0,0,2.43-1V62.48l-2.17.13c-1.11.09-1.67.64-1.67,1.67S494,65.81,494.9,65.81Z"/><path class="cls-1" d="M530.87,74.84H516.53V42.52h14.34v3q4-3.84,6.78-3.84V55A13.48,13.48,0,0,0,532,56.72l-1.15.58Z"/><path class="cls-1" d="M554.17,62.87c0,1.49,1,2.24,2.87,2.24q6.4,0,12.8-.39l2.5-.19.32,9.28a79.09,79.09,0,0,1-16.93,1.86q-8.41,0-12.16-3.87t-3.74-12.55q0-8.67,4-13.12t12.58-4.45q8.53,0,12.7,3.65t4.16,11.2l-.64,6.34ZM559,55.06a4.72,4.72,0,0,0-.54-2.62,2.13,2.13,0,0,0-1.89-.77,2,2,0,0,0-1.85.77,5.14,5.14,0,0,0-.58,2.62Z"/></svg>