<svg id="Layer_1" data-name="Layer 1" xmlns="http://www.w3.org/2000/svg" viewBox="0 0 509.44 75.33"><defs><style>.cls-1{fill:#ff6e61;}</style></defs><title>lockup-horiz-accent-outlines copy 2</title><path class="cls-1" d="M3.14,57.67,29.85,7.27h6.41L39,57.67H36.4l-.86-15.56H14L5.8,57.67Zm28.15-48-16,30.17H35.39L33.88,9.64Z"/><path class="cls-1" d="M55.41,58.31q-8.2,0-8.21-9.07a41.54,41.54,0,0,1,2-12.81,28.8,28.8,0,0,1,6.27-10.88A12.76,12.76,0,0,1,65.06,21a45.48,45.48,0,0,1,8.85.86l1.44.29,4-17.06h2.52L69.67,57.67H67.22l1.87-8.21-.76,1a24.36,24.36,0,0,1-2,2.12,29.07,29.07,0,0,1-3,2.67,18.31,18.31,0,0,1-3.71,2.12A10.35,10.35,0,0,1,55.41,58.31ZM74.85,24.4a46.37,46.37,0,0,0-9.72-1.08q-4.68,0-8.32,4.36a27.5,27.5,0,0,0-5.29,10.15,41.53,41.53,0,0,0-1.65,11.41q0,6.76,6.26,6.77A8.2,8.2,0,0,0,60,54.89a18.25,18.25,0,0,0,3.81-2.7,42.82,42.82,0,0,0,5.4-5.76L70,45.28Z"/><path class="cls-1" d="M80.25,57.67l8.42-36h2.45L89.9,27.14A46.82,46.82,0,0,1,104.08,21l-.57,2.52a55.28,55.28,0,0,0-11.81,5l-2.38,1.23-6.48,28Z"/><path class="cls-1" d="M102.14,57.67l8.35-36H113l-8.35,36Zm10.58-45.94,1-4.32h2.59l-1,4.32Z"/><path class="cls-1" d="M119.63,47.8a8,8,0,0,0,2.13,5.94A7.07,7.07,0,0,0,127,55.87a37.79,37.79,0,0,0,10.72-1.59l1.73-.5v2.37a37.41,37.41,0,0,1-12.38,2.16,10.19,10.19,0,0,1-7.35-2.62A9.79,9.79,0,0,1,117,48.31a37.93,37.93,0,0,1,1.19-9.44,36,36,0,0,1,3.45-8.74,18.79,18.79,0,0,1,6-6.59A15,15,0,0,1,136.19,21q9.36,0,9.36,7.41,0,6.12-5,8.68t-15.33,2.56h-4.54A33.59,33.59,0,0,0,119.63,47.8Zm6.27-10.44q8.85,0,13-1.91t4.1-7c0-3.4-2.28-5.11-6.84-5.11q-10.51,0-14.9,14Z"/><path class="cls-1" d="M156.78,29.8Q163.85,21,170.1,21a8.16,8.16,0,0,1,6.09,2.23,8.12,8.12,0,0,1,2.19,5.94A46.1,46.1,0,0,1,177,39l-4.39,18.72h-2.45l4.32-18.58A39.85,39.85,0,0,0,175.86,30q0-6.63-6.19-6.63a8.53,8.53,0,0,0-3.89,1.08A17.41,17.41,0,0,0,162,27.14a40.83,40.83,0,0,0-5.33,5.69l-.79,1.08L150.3,57.67h-2.52l8.35-36h2.52Z"/><path class="cls-1" d="M191.92,29.8Q199,21,205.24,21a8.13,8.13,0,0,1,6.08,2.23,8.09,8.09,0,0,1,2.2,5.94A46.77,46.77,0,0,1,212.15,39l-4.39,18.72h-2.45l4.32-18.58A40.43,40.43,0,0,0,211,30q0-6.63-6.19-6.63a8.53,8.53,0,0,0-3.89,1.08,17.48,17.48,0,0,0-3.82,2.67,41.45,41.45,0,0,0-5.33,5.69L191,33.91l-5.54,23.76h-2.52l8.35-36h2.52Z"/><path class="cls-1" d="M222.45,47.8a8,8,0,0,0,2.12,5.94,7.1,7.1,0,0,0,5.22,2.13,37.86,37.86,0,0,0,10.73-1.59l1.73-.5v2.37a37.43,37.43,0,0,1-12.39,2.16,10.15,10.15,0,0,1-7.34-2.62,9.76,9.76,0,0,1-2.74-7.38A38.4,38.4,0,0,1,221,38.87a35.65,35.65,0,0,1,3.46-8.74,18.76,18.76,0,0,1,6-6.59A15.05,15.05,0,0,1,239,21q9.36,0,9.36,7.41,0,6.12-5,8.68t-15.34,2.56h-4.53A33.59,33.59,0,0,0,222.45,47.8Zm6.26-10.44q8.85,0,13-1.91c2.74-1.27,4.1-3.61,4.1-7s-2.28-5.11-6.84-5.11q-10.5,0-14.9,14Z"/><path class="cls-1" d="M284.44,57.67H267.37L279,7.27h16.41q6.56,0,9.4,3.6t2.84,10.22a54.49,54.49,0,0,1-1.44,12.67,53.87,53.87,0,0,1-4.14,11.49,24.75,24.75,0,0,1-7.34,8.92A16.78,16.78,0,0,1,284.44,57.67Zm15.44-14a52.63,52.63,0,0,0,3.74-10.76A50.23,50.23,0,0,0,305,21.38q0-5.84-2.27-8.79c-1.51-2-4.09-2.95-7.74-2.95h-13.9L270.61,55.29h14.47a12.87,12.87,0,0,0,8.5-3.28A24.4,24.4,0,0,0,299.88,43.66Z"/><path class="cls-1" d="M314.6,47.8a8,8,0,0,0,2.13,5.94A7.07,7.07,0,0,0,322,55.87a37.86,37.86,0,0,0,10.73-1.59l1.72-.5v2.37A37.32,37.32,0,0,1,322,58.31a10.15,10.15,0,0,1-7.34-2.62,9.76,9.76,0,0,1-2.74-7.38,38.4,38.4,0,0,1,1.19-9.44,36,36,0,0,1,3.45-8.74,18.88,18.88,0,0,1,6.05-6.59A15,15,0,0,1,331.16,21q9.36,0,9.36,7.41,0,6.12-5,8.68t-15.34,2.56h-4.54A33.59,33.59,0,0,0,314.6,47.8Zm6.27-10.44q8.85,0,13-1.91t4.1-7c0-3.4-2.28-5.11-6.84-5.11q-10.51,0-14.9,14Z"/><path class="cls-1" d="M364.72,21c3.45,0,5.79.87,7,2.63s1.83,4.38,1.83,7.88A37,37,0,0,1,371.12,44a37.45,37.45,0,0,1-3.34,6.91,17.45,17.45,0,0,1-5.19,5.29,12.54,12.54,0,0,1-7.09,2.12,63.59,63.59,0,0,1-10.44-1.08L343,56.87,354.92,5.11h2.52l-5.25,22.6a26.67,26.67,0,0,1,2.19-2,30.71,30.71,0,0,1,3.14-2.34A13.21,13.21,0,0,1,364.72,21Zm-18.8,33.91a60.77,60.77,0,0,0,9.9,1.08,10.08,10.08,0,0,0,6.95-3,18.83,18.83,0,0,0,4.83-7.28c2.2-5.8,3.31-10.32,3.31-13.53s-.45-5.49-1.33-6.81-2.75-2-5.58-2a10.85,10.85,0,0,0-5.58,1.95,26.31,26.31,0,0,0-5.08,4l-1.94,1.94Z"/><path class="cls-1" d="M377.39,57.67l8.35-36h2.52l-8.35,36ZM388,11.73l1-4.32h2.59l-1,4.32Z"/><path class="cls-1" d="M408.92,21a12.79,12.79,0,0,1,5.69,1.08l10.73-.43-.58,2.52h-7.92a8.23,8.23,0,0,1,1.8,5.22,16.52,16.52,0,0,1-.86,5.4,17.74,17.74,0,0,1-2.59,4.78,12.68,12.68,0,0,1-4.83,3.78,15.92,15.92,0,0,1-7,1.48l-1.87-.14q-3,3.81-3,6.19a2,2,0,0,0,1.34,2,29.92,29.92,0,0,0,6.55,1.16q5.22.57,7.59,2.41c1.59,1.22,2.38,3.11,2.38,5.65q0,5-5.11,8.89T398,74.87a11.82,11.82,0,0,1-8-2.59,8.31,8.31,0,0,1-3-6.55q0-6.48,10-11.88A3,3,0,0,1,396,51.4,7.36,7.36,0,0,1,397,48a18.09,18.09,0,0,1,1.8-2.84l.94-1q-5-2-5-8.35a15.64,15.64,0,0,1,3.85-10A12.73,12.73,0,0,1,408.92,21ZM392.33,59.75a8,8,0,0,0-2.7,5.73,6.42,6.42,0,0,0,2.3,5.07c1.54,1.35,3.74,2,6.62,2a18.84,18.84,0,0,0,10.73-3q4.47-3,4.47-7.45a4.42,4.42,0,0,0-1.84-4c-1.22-.79-3.4-1.34-6.52-1.65a25.1,25.1,0,0,1-6.55-1.26A24.82,24.82,0,0,0,392.33,59.75ZM404,42.55a11.94,11.94,0,0,0,5.55-1.26,10.28,10.28,0,0,0,3.81-3.21,12.55,12.55,0,0,0,2.74-7.45q0-3.7-1.69-5.51t-5.73-1.8a9.94,9.94,0,0,0-8.28,4,13.5,13.5,0,0,0-3.09,8.28Q397.26,42.55,404,42.55Z"/><path class="cls-1" d="M433.69,58.31q-8.64,0-8.64-9.14a41.4,41.4,0,0,1,2-12.67,28.4,28.4,0,0,1,6.26-10.91A12.93,12.93,0,0,1,443.05,21a70,70,0,0,1,10.37,1.08l2.23.36-5.47,23.47q-.8,3.32-1.8,9.72l-.29,1.94-2.38.15q1.23-7.49,1.59-9.15c-.2.25-.46.59-.8,1A28.91,28.91,0,0,1,444.45,52a35,35,0,0,1-3.09,3,18.49,18.49,0,0,1-3.67,2.34A9.06,9.06,0,0,1,433.69,58.31Zm19-33.91a49,49,0,0,0-9.83-1.08q-4.58,0-8.21,4.36a27.33,27.33,0,0,0-5.29,10.11,40.92,40.92,0,0,0-1.66,11.38,7.41,7.41,0,0,0,1.52,5.08c1,1.12,2.66,1.69,5,1.69,2.6,0,6.12-2.45,10.59-7.35a28.4,28.4,0,0,0,2.37-2.88l.87-1.15Z"/><path class="cls-1" d="M458.17,57.67l8.42-36H469l-1.22,5.47A46.82,46.82,0,0,1,482,21l-.58,2.52a55.45,55.45,0,0,0-11.8,5l-2.38,1.23-6.48,28Z"/><path class="cls-1" d="M482.94,47.8a8,8,0,0,0,2.12,5.94,7.1,7.1,0,0,0,5.22,2.13A37.86,37.86,0,0,0,501,54.28l1.73-.5v2.37a37.43,37.43,0,0,1-12.39,2.16A10.15,10.15,0,0,1,483,55.69a9.76,9.76,0,0,1-2.74-7.38,38.4,38.4,0,0,1,1.19-9.44,35.65,35.65,0,0,1,3.46-8.74,18.76,18.76,0,0,1,6-6.59A15.05,15.05,0,0,1,499.5,21q9.36,0,9.36,7.41,0,6.12-5,8.68t-15.34,2.56H484A33.59,33.59,0,0,0,482.94,47.8Zm6.26-10.44q8.85,0,13-1.91c2.74-1.27,4.1-3.61,4.1-7s-2.28-5.11-6.84-5.11q-10.51,0-14.9,14Z"/></svg>